<svg width="100" height="61" viewBox="0 0 100 61" fill="none" xmlns="http://www.w3.org/2000/svg">
<path d="M47.393 47.7424V0.0635295L95.1354 0V25.8883C94.3034 32.8375 91.6275 34.9237 84.0813 36.3706H60.1306V47.7424H47.393Z" fill="#E98A23"/>
<path d="M60.0354 23.2835V12.5153H82.3978V20.2659C82.2995 22.5038 80.6537 23.0321 76.2036 23.2835H60.0354Z" fill="white"/>
<path d="M0 47.4565V9.21178C1.139 2.80588 3.44346 0.8508 10.2918 0.0635376H47.393V12.6424H18.0424C15.1496 12.6741 13.7472 13.1124 12.4518 16.2V23.8236H47.393V36.6565H12.4518V47.4565H0Z" fill="#26393F"/>
<path d="M0.883793 52.4535H7.5244V54.4242H3.52332V55.8336H6.96306V57.7206H3.52332V60.6707H0.883793V52.4535Z" fill="#26393F"/>
<path d="M8.96948 60.6707V52.4535H11.609V60.6707H8.96948Z" fill="#26393F"/>
<path d="M13.4922 52.4535H20.5986V54.4242H16.1317V55.5589H19.9536V57.4459H16.1317V58.7H20.6822V60.6707H13.4922V52.4535Z" fill="#26393F"/>
<path d="M22.1116 52.4535H24.7511V58.5686H28.9672V60.6707H22.1116V52.4535Z" fill="#26393F"/>
<path d="M33.637 52.4535C36.5114 52.4535 37.9486 53.8231 37.9486 56.5621C37.9486 59.3012 36.5114 60.6707 33.637 60.6707H30.0778V52.4535H33.637ZM32.7173 58.7H33.5892C34.696 58.7 35.2494 58.1068 35.2494 56.9204V56.2038C35.2494 55.0174 34.696 54.4242 33.5892 54.4242H32.7173V58.7Z" fill="#26393F"/>
<path d="M47.9612 52.4535C48.4708 52.4535 48.9247 52.573 49.3228 52.8118C49.7209 53.0427 50.0314 53.3652 50.2544 53.7793C50.4773 54.1853 50.5888 54.6432 50.5888 55.1528V55.308C50.5888 55.8176 50.4773 56.2794 50.2544 56.6935C50.0314 57.1075 49.7209 57.434 49.3228 57.6729C48.9247 57.9038 48.4708 58.0192 47.9612 58.0192H45.9905V60.6707H43.351V52.4535H47.9612ZM45.9905 56.0963H47.0774C47.3561 56.0963 47.5631 56.0247 47.6985 55.8813C47.8418 55.738 47.9135 55.5429 47.9135 55.2961V55.2005C47.9135 54.9458 47.8418 54.7507 47.6985 54.6153C47.5631 54.472 47.3561 54.4003 47.0774 54.4003H45.9905V56.0963Z" fill="#26393F"/>
<path d="M59.7696 54.9736C59.7696 55.4753 59.6342 55.9291 59.3635 56.3352C59.0928 56.7413 58.6986 57.0399 58.1811 57.231L60.0084 60.6707H57.0464L55.5893 57.6729H54.61V60.6707H51.9704V52.4535H56.9987C57.5879 52.4535 58.0895 52.569 58.5035 52.7999C58.9256 53.0228 59.2401 53.3294 59.4471 53.7195C59.6621 54.1017 59.7696 54.5198 59.7696 54.9736ZM57.0823 55.0811C57.0823 54.8661 57.0106 54.687 56.8673 54.5437C56.724 54.4003 56.5488 54.3287 56.3418 54.3287H54.61V55.8455H56.3418C56.5488 55.8455 56.724 55.7738 56.8673 55.6305C57.0106 55.4792 57.0823 55.2961 57.0823 55.0811Z" fill="#26393F"/>
<path d="M65.1527 52.3102C66.57 52.3102 67.6649 52.6725 68.4372 53.3971C69.2096 54.1216 69.5957 55.1767 69.5957 56.5621C69.5957 57.9476 69.2096 59.0026 68.4372 59.7272C67.6649 60.4517 66.57 60.814 65.1527 60.814C63.7354 60.814 62.6406 60.4557 61.8683 59.7391C61.1039 59.0145 60.7217 57.9555 60.7217 56.5621C60.7217 55.1687 61.1039 54.1137 61.8683 53.3971C62.6406 52.6725 63.7354 52.3102 65.1527 52.3102ZM65.1527 54.2809C64.5874 54.2809 64.1574 54.4521 63.8628 54.7945C63.5682 55.1369 63.4209 55.5987 63.4209 56.1799V56.9443C63.4209 57.5256 63.5682 57.9874 63.8628 58.3298C64.1574 58.6721 64.5874 58.8433 65.1527 58.8433C65.7181 58.8433 66.148 58.6721 66.4426 58.3298C66.7452 57.9874 66.8965 57.5256 66.8965 56.9443V56.1799C66.8965 55.5987 66.7452 55.1369 66.4426 54.7945C66.148 54.4521 65.7181 54.2809 65.1527 54.2809Z" fill="#26393F"/>
<path d="M78.0758 60.6707V57.7087C78.0758 57.3424 78.0877 56.9682 78.1116 56.586C78.1434 56.1958 78.1753 55.8694 78.2071 55.6066C78.239 55.3439 78.2589 55.1767 78.2668 55.105H78.2191L76.7022 60.6707H74.636L73.1072 55.1169H73.0595C73.0674 55.1886 73.0873 55.3558 73.1192 55.6186C73.159 55.8734 73.1948 56.1958 73.2267 56.586C73.2585 56.9682 73.2744 57.3424 73.2744 57.7087V60.6707H70.8499V52.4535H74.5763L75.8184 57.1951H75.8662L77.0964 52.4535H80.6914V60.6707H78.0758Z" fill="#26393F"/>
<path d="M87.8018 60.6707L87.4554 59.5122H84.577L84.2307 60.6707H81.5314L84.5293 52.4535H87.5988L90.5966 60.6707H87.8018ZM85.1265 57.6729H86.906L86.0461 54.7467H85.9983L85.1265 57.6729Z" fill="#26393F"/>
<path d="M100 60.6707H96.7991L95.2823 58.1148H95.2345L93.7177 60.6707H90.7557L93.6938 56.3232L91.0423 52.4535H94.2313L95.4734 54.5556H95.5212L96.7752 52.4535H99.7253L97.0619 56.3352L100 60.6707Z" fill="#26393F"/>
</svg>